<svg width="295" height="63" viewBox="0 0 295 63" fill="none" xmlns="http://www.w3.org/2000/svg">
<path d="M168.244 16.4673C155.514 16.4673 145.16 26.9046 145.16 39.7336C145.16 52.5626 155.514 63 168.244 63C177.226 63 185.462 57.6818 189.221 49.4504C189.319 49.2338 189.301 48.9907 189.173 48.7917C189.045 48.5928 188.832 48.4779 188.593 48.4779H185.267C184.998 48.4779 184.754 48.637 184.644 48.8846C182.525 53.6103 178.633 56.9303 173.976 57.9913C172.901 58.2344 171.826 58.3538 170.756 58.3538C163.064 58.3538 155.855 52.2399 153.842 43.4205C152.732 38.5533 153.352 33.5976 155.585 29.4687C157.819 25.3441 161.392 22.5369 165.656 21.5644C172.914 19.911 180.539 24.0488 184.206 31.626C184.321 31.8647 184.56 32.015 184.821 32.015H188.615C188.938 32.015 189.235 31.8559 189.412 31.5862C189.593 31.3165 189.624 30.9761 189.496 30.6711C185.873 22.0418 177.523 16.4673 168.23 16.4673H168.244Z" fill="currentColor"/>
<path d="M22.9505 16.7369C10.2966 16.7369 0 27.1124 0 39.8662C0 52.6201 10.2966 62.9956 22.9505 62.9956C31.8848 62.9956 40.0717 57.7084 43.809 49.5256C43.924 49.2692 43.9063 48.9774 43.7515 48.7431C43.6012 48.5088 43.3446 48.3673 43.066 48.3673H39.7798C39.4613 48.3673 39.1694 48.5574 39.0367 48.8492C36.9579 53.4777 33.1498 56.7314 28.5853 57.7747C24.4101 58.7251 20.0579 57.7703 16.3338 55.0736C12.5965 52.3725 9.94273 48.2524 8.85027 43.4736C7.7578 38.6947 8.36817 33.8319 10.5619 29.7781C12.7513 25.7376 16.2542 22.9879 20.4295 22.0374C27.5415 20.415 35.0163 24.4776 38.6121 31.9089C38.7492 32.1874 39.0367 32.3687 39.3419 32.3687H43.0925C43.4552 32.3687 43.7913 32.1874 43.9948 31.8868C44.1983 31.5818 44.2336 31.1972 44.0921 30.8568C40.4874 22.2805 32.19 16.7369 22.9505 16.7369Z" fill="currentColor"/>
<path d="M266.26 17.011H261.098V17.0243C247.856 17.2674 237.197 27.749 237.197 40.6576C237.197 52.4698 246.649 62.1335 258.613 62.9381V63H281.121V31.8647C281.121 23.6642 274.469 17.011 266.26 17.011ZM271.426 59.7331H265.49C254.716 57.8675 246.538 48.7387 246.538 37.7487C246.538 30.7905 250.103 23.0851 256.304 20.7642C257.476 20.3266 259.188 20.1542 261.112 20.0923V20.163H262.018C267.224 20.163 271.426 24.7075 271.426 29.9063V59.7331Z" fill="currentColor"/>
<path d="M227.409 20.5653C225.883 19.2612 224.145 18.3682 222.203 17.8952C220.261 17.4177 218.271 17.179 216.232 17.179C213.366 17.179 210.885 17.6741 208.784 18.66C206.683 19.6458 205.029 20.7465 203.817 21.9534V11.4541C203.817 9.10231 203.689 7.17487 203.437 5.68065C203.18 4.18644 202.72 3.00611 202.052 2.14848C201.384 1.29086 200.491 0.71616 199.381 0.428812C198.266 0.141464 196.882 0 195.228 0V63H203.821V26.5333C205.029 25.1982 206.449 24.0223 208.072 23.0011C209.695 21.9844 211.464 21.476 213.371 21.476C214.706 21.476 215.998 21.7014 217.241 22.1435C218.483 22.59 219.594 23.3194 220.584 24.3406C221.571 25.3574 222.367 26.6969 222.973 28.3502C223.579 30.0036 223.879 32.0106 223.879 34.3624V63H232.473V34.3624C232.473 30.9275 232.009 28.0938 231.089 25.8658C230.164 23.6377 228.939 21.8738 227.413 20.5697L227.409 20.5653Z" fill="currentColor"/>
<path d="M135.271 19.9066C133.718 18.5848 131.958 17.6786 129.985 17.1923C128.013 16.706 125.991 16.4628 123.926 16.4628C121.016 16.4628 118.494 16.9624 116.363 17.9659C114.231 18.9694 112.546 20.0834 111.321 21.308H110.834C110.317 20.0834 109.427 19.1286 108.167 18.4478C106.906 17.7714 105.044 17.431 102.59 17.431V62.9912H111.316V25.9674C112.541 24.6103 113.983 23.4167 115.633 22.3822C117.283 21.3478 119.074 20.8305 121.016 20.8305C122.373 20.8305 123.683 21.056 124.943 21.5113C126.204 21.9622 127.336 22.7094 128.335 23.7394C129.339 24.7738 130.144 26.131 130.759 27.8109C131.374 29.4908 131.679 31.5287 131.679 33.9159V62.9956H140.406V33.9159C140.406 30.428 139.937 27.5501 138.999 25.2866C138.061 23.0232 136.819 21.2328 135.266 19.9066H135.271Z" fill="currentColor"/>
<path d="M78.8165 17.2365C65.6671 13.9651 52.4603 21.3964 49.3731 33.7966C47.8781 39.8088 48.9529 46.073 52.4028 51.4442C55.8482 56.8065 61.253 60.6349 67.622 62.2175C69.7141 62.7392 71.8327 62.9956 73.9247 62.9956C78.1972 62.9956 82.3858 61.9213 86.1143 59.8259C91.6783 56.7004 95.5661 51.6652 97.0654 45.6574C100.153 33.2572 91.9658 20.5078 78.8165 17.2409V17.2365ZM86.2558 56.276C82.8369 58.9683 78.2636 59.7905 73.3895 58.5837C68.4889 57.3724 63.867 54.269 60.3729 49.8394C53.1856 40.715 53.0972 28.7569 60.1783 23.1824C62.6241 21.2593 65.6052 20.3398 68.7587 20.3398C74.7474 20.3398 81.3508 23.6421 86.0568 29.6145C89.5465 34.0441 91.4837 39.2606 91.5102 44.3091C91.5368 49.3311 89.6703 53.5794 86.247 56.2716L86.2558 56.276Z" fill="currentColor"/>
<path d="M291.656 54.6492C289.33 54.0701 286.995 55.3831 286.446 57.5802C286.181 58.6411 286.371 59.7508 286.981 60.7012C287.592 61.6517 288.547 62.328 289.675 62.6066C290.046 62.6994 290.418 62.7436 290.789 62.7436C291.546 62.7436 292.284 62.5535 292.948 62.1822C293.934 61.6296 294.62 60.7366 294.885 59.6756C295.429 57.4829 293.983 55.2283 291.656 54.6492Z" fill="currentColor"/>
</svg>
