<svg width="138" height="38" viewBox="0 0 138 38" fill="none" xmlns="http://www.w3.org/2000/svg">
<path d="M0.00106611 1.1648H4.29237V18.0565C4.29237 19.6811 5.30466 19.6501 6.19321 19.6501H13.8873V23.6053H4.65931C2.23579 23.6053 0 22.6859 0 19.2523L0.00106611 1.1648Z" fill="#E3DDD3"/>
<path d="M16.522 1.1648H26.0561C32.4936 1.1648 33.8429 6.92481 33.8429 12.4715C33.8429 19.0624 31.5165 23.5989 26.0561 23.5989H16.522V1.1648ZM25.719 19.776C28.5084 19.776 29.5506 16.9568 29.5506 12.4491C29.5506 6.43947 28.1105 4.96853 25.719 4.96853H20.8122V19.7728L25.719 19.776Z" fill="#E3DDD3"/>
<path d="M36.8147 1.1648H41.1679L50.0588 15.6651V1.1648H54.3501V23.6043H50.0588L41.1412 9.25867V23.6043H36.819L36.8147 1.1648Z" fill="#E3DDD3"/>
<path d="M64.3439 1.1648H69.2187L76.5149 23.6043H71.9483L70.3536 18.6379H62.9935L61.3689 23.6043H56.7704L64.3439 1.1648ZM69.3403 14.8373L66.8261 6.80534L64.1285 14.8373H69.3403Z" fill="#E3DDD3"/>
<path d="M86.1375 6.77547C86.1375 2.33067 88.7744 1.04321 92.207 0.982405C95.1247 0.911093 98.0397 1.20965 100.882 1.87094V5.24267C98.9207 5.05813 94.4748 4.93654 93.3718 4.93654C91.5019 4.90561 90.4288 5.03361 90.4288 7.11361V8.21867C90.4288 9.9968 91.1072 10.3648 92.8203 10.3648H96.3767C100.791 10.3648 101.68 13.8293 101.68 16.3115V17.8144C101.68 22.9035 98.5218 23.8528 95.4871 23.8528C92.566 23.9663 89.644 23.6566 86.8117 22.9333V19.5595C88.0384 19.6811 91.7771 19.8965 94.6294 19.8965C95.9169 19.8965 97.3879 19.6832 97.3879 17.9648V16.7701C97.3879 15.4827 97.021 14.6549 95.3612 14.6549H91.9275C86.4991 14.6549 86.1333 10.6699 86.1333 8.70827L86.1375 6.77547Z" fill="#E3DDD3"/>
<path d="M111.768 0H116.213L107.598 25.8133H103.153L111.768 0Z" fill="#E3DDD3"/>
<path d="M125.284 1.1648H130.158L137.454 23.6043H132.882L131.287 18.6379H123.927L122.303 23.6043H117.704L125.284 1.1648ZM130.281 14.8373L127.768 6.80534L125.071 14.8373H130.281Z" fill="#E3DDD3"/>
<path d="M5.53506 29.0965H7.28978L9.91597 37.1733H8.26793L7.69405 35.3856H5.04972L4.46837 37.1733H2.80967L5.53506 29.0965ZM7.33458 34.0182L6.43001 31.1275L5.4604 34.0182H7.33458Z" fill="#E3DDD3"/>
<path d="M16.0964 29.0091C17.1418 28.9816 18.186 29.1008 19.1983 29.3632V30.5664C19.1322 30.5664 17.7199 30.3787 16.4623 30.3787C15.2366 30.3787 15.0084 31.1179 15.0084 33.1147C15.0084 35.2117 15.2505 35.7739 16.3876 35.7813C16.8916 35.7615 17.3767 35.5839 17.7743 35.2736V33.8283H16.6489V32.8459C17.2667 32.6379 17.918 32.5481 18.569 32.5813C18.8004 32.5813 19.0533 32.5813 19.3157 32.6037V37.1723H18.2148L17.7956 36.6315C17.5649 36.8391 17.2952 36.9987 17.0022 37.1011C16.7092 37.2034 16.3987 37.2465 16.0889 37.2277C13.8051 37.3163 13.4627 35.3963 13.4627 33.0901C13.4585 30.7413 13.9033 29.0091 16.0964 29.0091Z" fill="#E3DDD3"/>
<path d="M23.6667 30.7776C23.6456 30.5453 23.6772 30.3112 23.7591 30.0928C23.841 29.8744 23.9711 29.6773 24.1398 29.5162C24.3084 29.355 24.5112 29.234 24.7331 29.1621C24.955 29.0901 25.1903 29.0692 25.4214 29.1008C25.4214 29.1008 28.2684 29.1787 28.9735 29.2768V30.5568H25.7841C25.2102 30.5568 25.2102 30.8768 25.2102 31.1755V32.4352L28.4764 32.5419V33.8155L25.2102 33.9126V35.1723C25.2102 35.7536 25.575 35.7461 25.895 35.7461H28.9735V37.0144C28.3441 37.1029 25.5302 37.2011 25.5302 37.2011C24.8134 37.2341 23.6656 37.0688 23.6656 35.5797L23.6667 30.7776ZM26.0134 26.8939H27.1612L28.2279 28.3872H27.2017L26.55 27.7248L25.8545 28.3872H24.8177L26.0134 26.8939Z" fill="#E3DDD3"/>
<path d="M33.2125 29.0965H34.7795L37.9796 34.3157V29.0965H39.522V37.1765H37.9806L34.772 32.0128V37.1765H33.22L33.2125 29.0965Z" fill="#E3DDD3"/>
<path d="M46.4918 29.0091C47.4417 28.9888 48.3892 29.1118 49.3025 29.3739V30.5877C49.2918 30.5877 47.935 30.4341 46.8491 30.4341C45.7131 30.4341 45.2832 30.688 45.2832 33.1371C45.2832 34.9504 45.5808 35.8187 46.8491 35.8187C48.0118 35.8187 49.3025 35.7301 49.3025 35.7301V36.9333C48.3881 37.186 47.4392 37.2905 46.4918 37.2427C44.4501 37.2203 43.745 35.6768 43.745 33.1168C43.7408 30.5312 44.2922 29.0091 46.4918 29.0091Z" fill="#E3DDD3"/>
<path d="M53.5063 29.0965H55.0552V37.1765H53.5106L53.5063 29.0965Z" fill="#E3DDD3"/>
<path d="M61.8905 29.0965H63.6452L66.2714 37.1733H64.6234L64.0495 35.3856H61.401L60.8239 37.1765H59.1694L61.8905 29.0965ZM63.689 34.0182L62.7845 31.1275L61.8148 34.0182H63.689Z" fill="#E3DDD3"/>
<path d="M76.3709 29.0965H79.8024C82.1193 29.0965 82.6046 31.1712 82.6046 33.168C82.6046 35.5403 81.7662 37.1733 79.8024 37.1733H76.3709V29.0965ZM79.6777 35.7931C80.6814 35.7931 81.0569 34.7787 81.0569 33.1563C81.0569 30.9941 80.5385 30.464 79.6777 30.464H77.9122V35.7973L79.6777 35.7931Z" fill="#E3DDD3"/>
<path d="M86.9322 29.0965H88.4778V37.1765H86.9322V29.0965Z" fill="#E3DDD3"/>
<path d="M95.3185 29.0091C96.364 28.9816 97.4081 29.1008 98.4204 29.3632V30.5664C98.3543 30.5664 96.942 30.3787 95.6844 30.3787C94.4598 30.3787 94.2305 31.1179 94.2305 33.1147C94.2305 35.2117 94.4727 35.7739 95.6098 35.7813C96.1138 35.7615 96.5988 35.5839 96.9964 35.2736V33.8283H95.8711V32.8459C96.4888 32.6379 97.1402 32.5481 97.7911 32.5813C98.0226 32.5813 98.2754 32.5813 98.5378 32.6037V37.1723H97.4349L97.0157 36.6315C96.785 36.8392 96.5152 36.9989 96.2222 37.1012C95.9292 37.2036 95.6187 37.2466 95.3089 37.2277C93.0251 37.3163 92.6827 35.3963 92.6827 33.0901C92.6817 30.7413 93.1244 29.0091 95.3185 29.0091Z" fill="#E3DDD3"/>
<path d="M102.923 29.0965H104.469V37.1765H102.923V29.0965Z" fill="#E3DDD3"/>
<path d="M108.551 29.0965H114.524V30.5195H112.284V37.1765H110.74V30.5237H108.555L108.551 29.0965Z" fill="#E3DDD3"/>
<path d="M119.839 29.0965H121.593L124.22 37.1733H122.571L121.998 35.3856H119.354L118.773 37.1733H117.117L119.839 29.0965ZM121.638 34.0182L120.732 31.1275L119.763 34.0182H121.638Z" fill="#E3DDD3"/>
<path d="M128.305 29.0965H129.849V35.1765C129.849 35.7579 130.214 35.7504 130.534 35.7504H133.308V37.1765H129.98C129.107 37.1765 128.303 36.8459 128.303 35.6107L128.305 29.0965Z" fill="#E3DDD3"/>
</svg>
