<svg width="147" height="98" viewBox="0 0 147 98" fill="none" xmlns="http://www.w3.org/2000/svg">
<path d="M58.08 0.02V0H56.45V0.04C25.47 0.49 0.38 26.3 0.03 58.12H0V59.6H0.03C0.39 80.55 17.51 97.49 38.55 97.49H39.37V97.29C47.01 96.97 53.53 92.26 56.45 85.6V97.33H146.59V96.51C146.59 43.59 106.96 0.5 58.08 0.02ZM37.73 76.98V95.84C18.02 95.41 2.07 79.46 1.64 59.75H37.73V76.98ZM39.37 95.68V78.62H56.43C56.02 87.84 48.59 95.26 39.37 95.68ZM39.44 76.98V59.99C48.62 60.41 56.01 67.8 56.43 76.98H39.44ZM56.44 70.05C54.32 65.2 50.27 61.43 45.29 59.6H56.44V70.05ZM56.44 57.96H1.64C2.06 27.11 26.41 2.09 56.44 1.64V57.96ZM58.08 95.7V1.64C105.81 2.11 144.55 44.05 144.95 95.7H58.08Z" fill="currentColor"/>
</svg>
